<?xml version="1.0" standalone="no"?>
<!DOCTYPE svg PUBLIC "-//W3C//DTD SVG 20010904//EN"
 "http://www.w3.org/TR/2001/REC-SVG-20010904/DTD/svg10.dtd">
<svg version="1.0" xmlns="http://www.w3.org/2000/svg"
 width="912.000000pt" height="912.000000pt" viewBox="0 0 912.000000 912.000000"
 preserveAspectRatio="xMidYMid meet">
<metadata>
Created by potrace 1.11, written by Peter Selinger 2001-2013
</metadata>
<g transform="translate(0.000000,912.000000) scale(0.100000,-0.100000)"
fill="#000000" stroke="none">
<path d="M4327 9114 c-3 -3 -35 -7 -73 -10 -134 -9 -225 -21 -338 -43 -28 -6
-64 -13 -81 -16 -28 -6 -38 -8 -90 -19 -66 -15 -225 -59 -255 -70 -19 -8 -38
-14 -42 -15 -10 -2 -34 -10 -55 -18 -10 -3 -20 -7 -23 -8 -30 -7 -88 -30 -97
-38 -7 -5 -13 -7 -13 -4 0 7 -156 -60 -280 -120 -275 -134 -561 -323 -800
-529 -62 -54 -307 -299 -353 -354 -80 -96 -85 -103 -164 -205 -97 -126 -234
-344 -308 -490 -14 -27 -30 -57 -35 -65 -4 -8 -20 -42 -35 -75 -15 -33 -31
-68 -36 -78 -26 -50 -135 -342 -144 -382 -2 -11 -15 -58 -30 -105 -14 -47 -28
-96 -30 -110 -3 -14 -9 -40 -14 -58 -5 -18 -10 -35 -10 -37 0 -3 -4 -29 -10
-58 -10 -50 -12 -62 -25 -137 -15 -90 -18 -119 -22 -170 -2 -30 -4 -55 -4 -55
-8 0 -14 -150 -14 -330 0 -200 5 -305 17 -360 3 -11 8 -47 11 -80 4 -33 10
-69 13 -80 3 -11 7 -31 9 -45 1 -14 3 -26 4 -27 4 -4 6 -14 14 -66 5 -26 12
-50 17 -53 5 -3 7 -10 4 -15 -4 -5 -2 -24 4 -42 6 -17 20 -66 32 -107 63 -216
163 -482 255 -674 13 -28 24 -56 24 -63 0 -7 5 -13 10 -13 6 0 10 -4 10 -10 0
-11 60 -132 113 -230 19 -36 48 -90 63 -120 15 -30 30 -57 34 -60 4 -3 9 -12
13 -20 4 -8 18 -33 32 -55 14 -22 31 -52 37 -68 7 -15 16 -27 20 -27 4 0 8 -4
8 -10 0 -16 357 -563 379 -580 3 -3 26 -34 51 -70 24 -36 48 -69 52 -75 5 -5
32 -41 60 -80 29 -38 56 -74 60 -80 5 -5 59 -75 121 -155 62 -80 122 -156 134
-170 11 -14 71 -86 133 -160 136 -164 205 -245 246 -288 18 -17 30 -32 26 -32
-3 0 4 -8 14 -17 10 -10 55 -58 99 -108 44 -49 99 -110 122 -135 23 -25 54
-58 69 -75 70 -78 376 -394 495 -512 279 -275 596 -569 776 -719 l41 -35 29
28 c16 15 45 42 65 58 55 47 166 146 219 195 27 25 90 83 141 130 209 192 814
806 975 990 21 24 56 62 78 86 22 23 60 66 84 94 25 29 50 58 56 64 14 15 189
220 240 281 22 27 50 60 62 74 26 30 24 27 83 104 25 31 48 57 52 57 5 0 8 7
8 15 0 8 5 15 10 15 6 0 10 7 10 15 0 8 7 15 15 15 8 0 15 4 15 10 0 8 70 104
123 170 12 15 132 177 189 255 46 63 142 199 153 217 6 8 31 47 58 87 111 167
184 283 185 295 0 5 4 12 9 15 12 8 123 199 123 212 0 5 3 9 8 9 4 0 12 10 18
23 6 12 43 82 82 156 40 74 72 141 72 148 0 7 5 13 10 13 6 0 10 4 10 10 0 5
20 53 45 107 26 54 50 107 55 118 4 11 17 40 28 65 11 25 43 108 72 185 28 77
54 147 57 155 3 8 7 22 9 30 2 8 17 57 33 109 17 51 28 97 25 102 -3 5 0 9 5
9 6 0 10 3 9 8 -1 4 6 41 16 82 10 41 20 84 22 95 18 91 24 126 29 165 3 25 8
56 10 70 14 81 19 179 19 375 0 214 -7 331 -28 470 -4 22 -9 58 -12 80 -11 69
-14 89 -26 145 -7 30 -12 57 -13 60 -1 3 -5 23 -9 45 -5 22 -14 60 -21 85 -43
145 -58 196 -59 205 -3 19 -81 226 -102 272 -8 17 -14 34 -14 37 0 20 -191
391 -230 446 -11 15 -20 33 -20 38 0 6 -6 17 -12 24 -7 7 -35 47 -63 88 -47
72 -119 172 -140 197 -5 6 -21 26 -35 44 -105 138 -364 404 -511 524 -13 11
-38 31 -55 45 -17 14 -43 34 -58 45 -16 11 -33 25 -40 30 -29 27 -157 115
-166 115 -5 0 -10 5 -10 10 0 6 -6 10 -13 10 -7 0 -22 8 -33 18 -10 9 -32 24
-49 32 -16 8 -34 18 -40 23 -31 23 -85 56 -85 50 0 -3 -6 -1 -12 5 -44 35
-419 212 -450 212 -8 0 -18 4 -23 9 -6 5 -53 23 -105 40 -52 18 -102 35 -110
38 -8 3 -19 7 -25 8 -5 2 -37 10 -70 19 -33 9 -67 18 -75 20 -8 2 -33 9 -55
14 -22 6 -51 13 -65 16 -14 2 -36 7 -50 10 -14 3 -36 8 -50 10 -14 3 -34 7
-45 9 -11 3 -40 8 -65 11 -25 3 -56 8 -70 10 -14 3 -52 8 -85 11 -33 4 -78 9
-100 12 -53 6 -553 12 -558 7z"/>
</g>
</svg>
